<?xml version="1.0" encoding="UTF-8"?>
<svg version="1.1" xmlns="http://www.w3.org/2000/svg" width="460" height="460">
<path d="M0 0 C151.8 0 303.6 0 460 0 C460 151.8 460 303.6 460 460 C308.2 460 156.4 460 0 460 C0 308.2 0 156.4 0 0 Z " fill="#DEE4DD" transform="translate(0,0)"/>
<path d="M0 0 C3.10213058 0.30599247 4.5833431 0.53556134 6.703125 2.8984375 C7.21359375 3.71570313 7.7240625 4.53296875 8.25 5.375 C14.77571224 15.41104993 14.77571224 15.41104993 23.25390625 23.7109375 C26.06694055 27.39871849 25.42253403 31.25747934 25.25 35.75 C25.23195313 36.63816406 25.21390625 37.52632812 25.1953125 38.44140625 C25.14827374 40.62870848 25.08257009 42.81379816 25 45 C25.84292603 45.26937378 25.84292603 45.26937378 26.70288086 45.54418945 C31.78193409 47.19737567 36.66818235 49.04920588 41.5625 51.1875 C42.50319336 51.59645508 42.50319336 51.59645508 43.46289062 52.01367188 C44.9767479 52.67237313 46.4886029 53.33567325 48 54 C48.33 57.63 48.66 61.26 49 65 C58.9248523 69.7417648 58.9248523 69.7417648 69.29296875 73.359375 C71 74 71 74 73 76 C73.13525391 77.97119141 73.13525391 77.97119141 72.9765625 80.3515625 C72.925 81.20234375 72.8734375 82.053125 72.8203125 82.9296875 C72.75585938 83.81914062 72.69140625 84.70859375 72.625 85.625 C72.56828125 86.5221875 72.5115625 87.419375 72.453125 88.34375 C72.31145247 90.56328624 72.1600296 92.78172402 72 95 C72.63405762 95.18836426 73.26811523 95.37672852 73.92138672 95.57080078 C75.59979798 96.07385402 77.27382334 96.59159176 78.9453125 97.1171875 C82.00878112 98.05133776 82.00878112 98.05133776 85.2421875 98.6328125 C92.439356 100.24159134 96.13013032 102.38762161 100.125 108.4375 C101.45444966 110.60224539 102.74953892 112.78868679 104 115 C106.15054016 118.66072097 108.46349038 122.05909783 111.01171875 125.44921875 C112 127 112 127 112 129 C95.5 129 79 129 62 129 C61.67 126.03 61.34 123.06 61 120 C60.33057373 119.77860352 59.66114746 119.55720703 58.97143555 119.32910156 C55.87623968 118.3043894 52.78186888 117.27720662 49.6875 116.25 C48.63498047 115.90195313 47.58246094 115.55390625 46.49804688 115.1953125 C37.68842481 112.26780732 28.91701499 109.24168724 20.3125 105.75 C19.48363281 105.41484375 18.65476562 105.0796875 17.80078125 104.734375 C16.90939453 104.37085938 16.90939453 104.37085938 16 104 C18.87503741 101.65140132 21.49302437 100.28096442 24.9921875 99.0625 C25.94480469 98.72476563 26.89742187 98.38703125 27.87890625 98.0390625 C28.86761719 97.69617188 29.85632813 97.35328125 30.875 97 C36.77586938 94.93740965 42.42870381 92.85643437 48 90 C49.63264322 89.47765511 51.27887108 88.99530268 52.9375 88.5625 C57.4548411 87.27768892 61.03487276 85.49975413 65 83 C65.33425735 80.62625139 65.33425735 80.62625139 65 78 C62.83278411 75.58272074 61.50947072 75.04678067 58.27734375 74.75 C54.39540454 75.04611932 51.71719604 76.18432371 48.1875 77.8125 C40.57444499 81.24150015 40.57444499 81.24150015 36.5625 82.5 C32.62477954 83.74005561 28.82014155 85.25432322 25 86.8125 C19.44580329 89.07291246 13.85077665 91.15412697 8.1875 93.125 C1.10307347 95.59555718 1.10307347 95.59555718 -5.9375 98.1875 C-6.68902344 98.46980469 -7.44054687 98.75210938 -8.21484375 99.04296875 C-10.34235889 100.00304281 -10.34235889 100.00304281 -12 103 C-11.85317112 105.93657759 -11.58275237 107.44616834 -9.42578125 109.49609375 C-6.23452392 111.47457052 -2.88435451 112.50330647 0.6875 113.5625 C1.35716797 113.77068359 2.02683594 113.97886719 2.71679688 114.19335938 C6.25234217 115.27056945 9.77019371 116.181535 13.390625 116.92578125 C18.46591453 118.0174473 23.22032844 119.77678556 28.0625 121.625 C28.92810547 121.94984375 29.79371094 122.2746875 30.68554688 122.609375 C32.79244496 123.40091682 34.89712802 124.19783722 37 125 C28.93408648 130.37727568 19.20750754 129.26106569 9.90625 129.1953125 C8.34826846 129.19157684 6.79028455 129.18873248 5.2322998 129.18673706 C1.15524677 129.17914408 -2.92166108 129.15953344 -6.99865723 129.1373291 C-11.16835568 129.11677669 -15.33807786 129.10771535 -19.5078125 129.09765625 C-27.67194121 129.07628294 -35.83595249 129.04220011 -44 129 C-43.25180872 125.67374046 -42.17054987 123.54133095 -40.1875 120.75 C-37.80188467 117.27381766 -35.81065743 113.81817967 -33.98828125 110.0234375 C-31.31870396 104.55766265 -28.21311369 99.3239239 -25.0625 94.125 C-24.5675 93.29613281 -24.0725 92.46726562 -23.5625 91.61328125 C-22.47222618 89.78979828 -21.3668166 87.97531704 -20.25 86.16796875 C-16.62197152 80.3883283 -16.62197152 80.3883283 -16.125 73.8125 C-16.41375 72.884375 -16.7025 71.95625 -17 71 C-15.906875 70.46375 -14.81375 69.9275 -13.6875 69.375 C-9.15004547 67.11844837 -4.73612764 64.65653979 -0.3203125 62.171875 C2 61 2 61 4 61 C4 57.37 4 53.74 4 50 C2.576875 50.495 1.15375 50.99 -0.3125 51.5 C-3.13135886 52.48047265 -4.98509443 53 -8 53 C-8.3626984 49.99478466 -8.60892542 47.91339318 -8 45 C-5.97436014 42.54418393 -3.56199857 40.85978054 -1 39 C0.69216617 37.82452035 0.69216617 37.82452035 2 36 C2.41447214 33.19266116 2.41447214 33.19266116 2.29296875 30.01953125 C2.28330078 28.85615234 2.27363281 27.69277344 2.26367188 26.49414062 C2.23853516 25.27919922 2.21339844 24.06425781 2.1875 22.8125 C2.17396484 21.58595703 2.16042969 20.35941406 2.14648438 19.09570312 C2.11108741 16.06336336 2.0617076 13.03190004 2 10 C1.50753784 10.90818481 1.50753784 10.90818481 1.00512695 11.8347168 C0.56644287 12.63562744 0.12775879 13.43653809 -0.32421875 14.26171875 C-0.75565186 15.05280029 -1.18708496 15.84388184 -1.6315918 16.65893555 C-3.3187683 19.54534688 -5.27816559 22.12174126 -7.3203125 24.76171875 C-11.4311007 30.23958303 -15.46770345 35.92756907 -18.52734375 42.0625 C-19.94478357 44.88986006 -21.5220164 47.31771494 -23.375 49.875 C-25.58465729 52.96202121 -27.67834657 56.05370359 -29.625 59.3125 C-31.20022043 61.93786739 -32.26783981 63.22423798 -34.6875 65.25 C-37.85169158 69.01282242 -37.86602473 72.44612244 -38.25 77.2578125 C-38.62125 78.61519531 -38.62125 78.61519531 -39 80 C-39.82588623 80.43723389 -40.65177246 80.87446777 -41.50268555 81.32495117 C-44.23795661 82.75882473 -44.23795661 82.75882473 -44.65942383 85.54370117 C-44.67513428 86.53345947 -44.69084473 87.52321777 -44.70703125 88.54296875 C-44.73603516 89.61611328 -44.76503906 90.68925781 -44.79492188 91.79492188 C-44.80362305 93.47424805 -44.80362305 93.47424805 -44.8125 95.1875 C-44.83763672 96.31865234 -44.86277344 97.44980469 -44.88867188 98.61523438 C-44.94764384 101.4105053 -44.98385033 104.20420675 -45 107 C-45.99 107.33 -46.98 107.66 -48 108 C-49.01641748 109.77008767 -49.01641748 109.77008767 -50 112 C-51.26942233 113.97282518 -52.56344093 115.92993315 -53.875 117.875 C-54.55304688 118.88304687 -55.23109375 119.89109375 -55.9296875 120.9296875 C-56.61289063 121.94289063 -57.29609375 122.95609375 -58 124 C-58.81597656 125.66289062 -58.81597656 125.66289062 -59.6484375 127.359375 C-62 130 -62 130 -64.09521484 130.47119141 C-66.67286239 130.59183414 -69.17403892 130.52339362 -71.75 130.375 C-72.63816406 130.34792969 -73.52632812 130.32085937 -74.44140625 130.29296875 C-76.63008395 130.22236624 -78.81379568 130.12385527 -81 130 C-79.6563724 126.26178857 -77.96690187 123.32594011 -75.625 120.125 C-73.5292611 117.21088372 -71.56552567 114.35377144 -69.875 111.1875 C-67.9255967 107.8735144 -65.89729634 105.51607314 -63 103 C-62.34 103 -61.68 103 -61 103 C-61.33 97.72 -61.66 92.44 -62 87 C-65.677223 89.65318622 -69.34437551 92.31731949 -73 95 C-73.83273438 95.6084375 -74.66546875 96.216875 -75.5234375 96.84375 C-82.93806841 102.41104966 -87.43570031 107.38627574 -91 116 C-92.46446546 118.35941657 -94.00916922 120.63805108 -95.60546875 122.91015625 C-97.14328627 125.07704164 -97.14328627 125.07704164 -98.3125 128.0625 C-100 130 -100 130 -102.1796875 130.296875 C-104.47657227 130.31118581 -106.71410388 130.21565058 -109 130 C-107.59869039 123.69410675 -104.69342156 118.5714669 -100.4140625 113.75390625 C-98.59140545 111.49320731 -97.1004229 109.08770914 -95.5625 106.625 C-87.28543133 93.42837207 -87.28543133 93.42837207 -81 89 C-80.24460938 88.45472656 -79.48921875 87.90945312 -78.7109375 87.34765625 C-74.96056795 84.66801154 -71.24931387 82.06144685 -67.1875 79.875 C-63.9663103 78.16910324 -63.9663103 78.16910324 -61.75 75.6875 C-59.16984136 73.16598133 -56.79889572 71.51785609 -53.75 69.625 C-51.83255125 68.4179081 -49.91586505 67.20960393 -48 66 C-46.79537109 65.25169922 -46.79537109 65.25169922 -45.56640625 64.48828125 C-39.41793666 60.25787843 -36.31957514 54.92074407 -32.89453125 48.48046875 C-30.80192142 44.63610718 -28.41357912 41.17826744 -25.85546875 37.63671875 C-23.17959717 33.8341644 -20.70743033 29.90815897 -18.21313477 25.98510742 C-16.2212976 22.86382913 -14.18910328 19.79879118 -12 16.8125 C-9.87645358 14.11614914 -9.87645358 14.11614914 -9 11 C-8.34 11 -7.68 11 -7 11 C-6.773125 10.29875 -6.54625 9.5975 -6.3125 8.875 C-4.68343133 5.30656387 -2.59359269 2.93485489 0 0 Z " fill="#033A33" transform="translate(235,65)"/>
<path d="M0 0 C1.28820145 -0.00073013 2.57640289 -0.00146027 3.90364075 -0.00221252 C7.42837614 -0.00364519 10.95225812 0.0257187 14.47679543 0.06065726 C18.16296815 0.09194659 21.84916115 0.0948535 25.53544617 0.1007843 C32.51241359 0.11631529 39.48898857 0.15733327 46.4657833 0.20753175 C54.41006983 0.26344872 62.35437526 0.29091756 70.29880965 0.31600893 C86.63783123 0.36825013 102.97645828 0.45617744 119.31518555 0.56762695 C119.64518555 2.54762695 119.97518555 4.52762695 120.31518555 6.56762695 C121.11827148 6.82930664 121.92135742 7.09098633 122.7487793 7.3605957 C129.53939828 9.65884463 136.24372676 12.19808609 142.9621582 14.69799805 C145.0378948 15.46514618 147.11820435 16.21699763 149.2019043 16.9621582 C154.58107443 18.93014728 159.0334393 20.8447245 163.5300293 24.38012695 C167.38478377 26.94433999 171.94496921 28.14155636 176.31518555 29.56762695 C178.37768555 30.25512695 180.44018555 30.94262695 182.50268555 31.63012695 C183.99155273 32.12125977 183.99155273 32.12125977 185.51049805 32.62231445 C189.14893334 33.84863944 192.72844122 35.19814275 196.31518555 36.56762695 C197.30518555 36.89762695 198.29518555 37.22762695 199.31518555 37.56762695 C198.31518555 40.56762695 198.31518555 40.56762695 196.30499935 41.73799229 C192.31142574 42.84615732 188.60454271 42.85379453 184.47816467 42.84178162 C183.14278496 42.84963663 183.14278496 42.84963663 181.78042787 42.85765034 C178.79725803 42.87265254 175.81425967 42.87335554 172.83105469 42.87402344 C170.6922934 42.88164464 168.55353485 42.89007207 166.41477966 42.89924622 C160.60493553 42.9211989 154.79514403 42.9299909 148.98526311 42.93507266 C145.35642003 42.9387146 141.72759078 42.94495375 138.09875298 42.95207405 C125.44180571 42.97656895 112.78489945 42.98962103 100.12792969 42.99316406 C88.32458609 42.99680177 76.52150213 43.02671407 64.71823794 43.06856865 C54.58733255 43.10323544 44.45651339 43.11871186 34.32554907 43.1194101 C28.2734077 43.12020399 22.22153091 43.12899473 16.16945076 43.15740776 C10.47877607 43.18352705 4.78858653 43.18582771 -0.90212059 43.16975212 C-2.99110214 43.16793289 -5.08011121 43.17467089 -7.16903305 43.19057083 C-10.02020307 43.21095054 -12.86966258 43.20052729 -15.72080994 43.18235779 C-16.54814902 43.19555776 -17.3754881 43.20875772 -18.22789806 43.22235769 C-22.29875943 43.16306994 -24.93350456 42.79125116 -28.19818974 40.24795628 C-30.68481445 37.56762695 -30.68481445 37.56762695 -31.43481445 34.06762695 C-30.61268491 30.23102242 -29.50174806 28.97585609 -26.4537704 26.59792101 C-23.42511655 24.83394036 -20.65889121 24.95417816 -17.20571899 24.96635437 C-16.47372012 24.96208225 -15.74172126 24.95781012 -14.9875406 24.95340854 C-12.5456684 24.94520176 -10.10553107 24.97262246 -7.66381836 25 C-5.90926148 25.00141098 -4.15470165 25.00061751 -2.40014648 24.99778748 C2.35580428 24.99635387 7.11112353 25.02573462 11.86692762 25.06065726 C16.83968873 25.09193003 21.81246457 25.09485223 26.78530884 25.1007843 C36.19881264 25.11632002 45.61202583 25.15734489 55.02540171 25.20753175 C65.74355461 25.2634336 76.46172144 25.29091385 87.17998385 25.31600893 C109.22521323 25.36826091 131.27018108 25.45619801 153.31518555 25.56762695 C150.09956515 21.84257198 150.09956515 21.84257198 145.72786617 19.86446667 C144.80712087 19.83065553 143.88637556 19.79684439 142.93772888 19.76200867 C141.87983595 19.71575033 140.82194302 19.669492 139.73199272 19.62183189 C138.60444635 19.60394426 137.47689999 19.58605663 136.31518555 19.56762695 C135.17552904 19.54401407 134.03587254 19.52040119 132.86168098 19.49607277 C129.02554303 19.44691797 125.19078512 19.44690416 121.35449219 19.45751953 C119.89287312 19.45776229 118.4312539 19.45748255 116.96963501 19.45672607 C113.84810415 19.45562886 110.72658813 19.45702949 107.60505867 19.46009254 C102.66696788 19.4637529 97.72895239 19.45453237 92.7908783 19.44230652 C91.95437667 19.44028459 91.11787505 19.43826266 90.2560249 19.43617946 C88.54723922 19.43201207 86.83845362 19.42780933 85.12966812 19.42357194 C73.65068943 19.39549088 62.17188068 19.37537114 50.69287109 19.39257812 C42.9229437 19.40412911 35.15335997 19.39457997 27.38349432 19.36052054 C23.27920518 19.34337305 19.17553699 19.33706729 15.07124519 19.35663795 C11.2187816 19.37484848 7.36739161 19.36528297 3.51501846 19.3343811 C2.10290405 19.32801209 0.69070044 19.33187649 -0.72134972 19.34677696 C-11.31838508 19.45030444 -11.31838508 19.45030444 -14.63678169 17.30670738 C-16.97918731 14.66658334 -17.7032924 12.46230268 -18.30981445 9.00512695 C-16.48189441 -1.04843327 -8.3371552 -0.12321735 0 0 Z " fill="#0F8D9A" transform="translate(89.684814453125,275.432373046875)"/>
<path d="M0 0 C0.86033844 -0.0071553 1.72067688 -0.01431061 2.60708618 -0.02168274 C4.01123779 -0.02571609 4.01123779 -0.02571609 5.4437561 -0.02983093 C6.43622345 -0.03640213 7.4286908 -0.04297333 8.45123291 -0.04974365 C11.73861776 -0.06946428 15.0259568 -0.08114042 18.31338501 -0.09111023 C20.00275114 -0.09722352 20.00275114 -0.09722352 21.72624588 -0.10346031 C27.69458075 -0.124322 33.66289266 -0.13861981 39.6312561 -0.147995 C45.76853855 -0.15902199 51.90545469 -0.19337894 58.04260826 -0.23316669 C62.78357573 -0.25944055 67.52445764 -0.26769668 72.26549149 -0.27127647 C74.5258899 -0.27611951 76.78628509 -0.28766754 79.04661179 -0.30631447 C91.31261435 -0.40116437 102.06229315 -0.21066578 113.66494751 4.14717102 C115.17990138 4.64283491 116.69587925 5.13539046 118.21328735 5.62348938 C119.51874987 6.0743565 120.82296647 6.52884797 122.12588501 6.98701477 C122.84499054 7.23584915 123.56409607 7.48468353 124.30499268 7.74105835 C126.55122899 8.51871415 128.79573419 9.30119838 131.03994751 10.08467102 C142.19219679 13.96991572 153.370683 17.69417796 164.66494751 21.14717102 C164.66494751 21.80717102 164.66494751 22.46717102 164.66494751 23.14717102 C164.01534058 23.3685675 163.36573364 23.58996399 162.69644165 23.81806946 C159.70530916 24.84019705 156.71638429 25.86864122 153.72744751 26.89717102 C152.19507446 27.41924133 152.19507446 27.41924133 150.63174438 27.95185852 C145.14224221 29.84599984 139.82256189 31.89703614 134.5440979 34.31660461 C132.35474696 35.28427668 130.1671195 35.9799369 127.85244751 36.58467102 C122.80008005 38.01802292 118.05138122 39.9874277 113.23135376 42.06123352 C109.44217643 43.66456883 106.57253084 44.27875174 102.48518372 44.31452942 C100.87648659 44.33176559 100.87648659 44.33176559 99.23529053 44.34934998 C98.05860809 44.35675201 96.88192566 44.36415405 95.66958618 44.3717804 C94.43032883 44.38317047 93.19107147 44.39456055 91.91426086 44.40629578 C87.80382909 44.4413791 83.69343012 44.46806549 79.58291626 44.49092102 C78.53338756 44.49683982 78.53338756 44.49683982 77.46265626 44.50287819 C70.86247799 44.53928989 64.26228894 44.57072776 57.66204357 44.59198761 C49.22442268 44.61956953 40.78764169 44.67035927 32.35037059 44.75246191 C26.41481736 44.80826265 20.479492 44.83722458 14.54368573 44.84646082 C10.99960307 44.85271609 7.45650601 44.87081433 3.91271019 44.91784668 C-0.04227721 44.96968819 -3.99616688 44.96607178 -7.95150757 44.9577179 C-9.70742218 44.99311172 -9.70742218 44.99311172 -11.49880981 45.02922058 C-19.22569971 44.95010333 -19.22569971 44.95010333 -22.40848351 42.64645386 C-25.00071463 39.75896312 -26.20644536 37.80306737 -26.96005249 33.95967102 C-26.19353904 30.51036051 -25.10929085 29.28729776 -22.33505249 27.14717102 C-19.01186296 26.03944118 -16.55307029 26.02410434 -13.05192566 26.0269165 C-11.07682762 26.02485451 -11.07682762 26.02485451 -9.06182861 26.02275085 C-7.59927346 26.02629003 -6.13671853 26.02992484 -4.67416382 26.03364563 C-3.13679506 26.03392765 -1.59942617 26.03376948 -0.0620575 26.03320312 C4.11532934 26.03291572 8.29268757 26.03880324 12.47006774 26.04577708 C16.83428665 26.05202011 21.19850619 26.05261517 25.56272888 26.05380249 C33.82872208 26.056913 42.09470208 26.06512262 50.36068946 26.07515198 C59.77049355 26.0863218 69.18029826 26.09182576 78.59010732 26.09684741 C97.94839487 26.10730546 117.30667013 26.12489949 136.66494751 26.14717102 C136.66494751 23.83717102 136.66494751 21.52717102 136.66494751 19.14717102 C135.93165096 19.1499364 135.19835442 19.15270178 134.44283676 19.15555096 C116.60776255 19.2217772 98.77271285 19.27143522 80.93754196 19.30260754 C72.31261533 19.31808256 63.68777072 19.33918417 55.06289673 19.37348938 C47.54626863 19.40337234 40.02969993 19.4227414 32.51301408 19.4294365 C28.5322295 19.43335065 24.55161487 19.4425625 20.5708847 19.46436119 C16.82478798 19.484709 13.07893139 19.49100833 9.33278465 19.48649406 C7.95732761 19.48732004 6.58186261 19.49329602 5.20645332 19.50478745 C3.32929404 19.5197029 1.4520062 19.51433934 -0.42520142 19.50793457 C-1.47604542 19.51069995 -2.52688942 19.51346533 -3.60957718 19.51631451 C-6.74419711 19.09175571 -8.09416482 18.35075936 -10.33505249 16.14717102 C-11.25521097 13.38669559 -11.52772494 11.51354833 -11.58505249 8.64717102 C-11.61083374 7.87373352 -11.63661499 7.10029602 -11.66317749 6.30342102 C-11.24828188 3.57696417 -10.53516461 2.77247907 -8.33505249 1.14717102 C-5.510127 0.26949459 -2.94911877 0.0169154 0 0 Z " fill="#3D8F3A" transform="translate(112.33505249023438,224.8528289794922)"/>
<path d="M0 0 C0.80253708 -0.00832352 1.60507416 -0.01664703 2.43193054 -0.02522278 C5.06453397 -0.04916998 7.69688933 -0.05807315 10.32958984 -0.06469727 C12.16848827 -0.0736706 14.00738597 -0.08279257 15.84628296 -0.09205627 C19.69099702 -0.1085039 23.53562438 -0.11623948 27.38037109 -0.11914062 C32.3045913 -0.12454032 37.22799741 -0.1623035 42.15198708 -0.20788479 C45.9455565 -0.23762402 49.73892834 -0.24486339 53.53260422 -0.24586678 C55.34829845 -0.25007021 57.1639932 -0.26250951 58.9795723 -0.28338432 C61.51694257 -0.31025317 64.0524037 -0.30548941 66.58984375 -0.29296875 C67.33698135 -0.30780304 68.08411896 -0.32263733 68.85389709 -0.33792114 C72.83221987 -0.28204267 74.50754527 0.17857606 77.64242554 2.71495056 C79.66552734 5.30639648 79.66552734 5.30639648 80.11083984 7.36889648 C80.00513672 8.00827148 79.89943359 8.64764648 79.79052734 9.30639648 C79.71060547 9.94577148 79.63068359 10.58514648 79.54833984 11.24389648 C78.11162064 14.6004794 76.60007966 16.06970392 73.66552734 18.30639648 C69.85109224 19.05294856 66.0819445 18.96557636 62.20581055 18.91821289 C61.0476181 18.92387772 59.88942566 18.92954254 58.69613647 18.93537903 C54.86919795 18.94888064 51.04320572 18.92793874 47.21630859 18.90795898 C44.56019076 18.91345666 41.90418256 18.92119255 39.24809265 18.93222046 C32.25694481 18.95668823 25.26606821 18.9509201 18.27490234 18.93841553 C7.73833033 18.91980761 -2.79819168 18.92462746 -13.33472568 18.95844972 C-17.9208768 18.97184166 -22.50657367 18.95959455 -27.09269714 18.94229126 C-29.48277895 18.94523741 -31.87286003 18.94889099 -34.26293945 18.95336914 C-35.36063156 18.94407883 -36.45832367 18.93478851 -37.58927917 18.92521667 C-39.08449097 18.9331852 -39.08449097 18.9331852 -40.60990906 18.9413147 C-41.4791183 18.93942957 -42.34832754 18.93754444 -43.24387646 18.93560219 C-44.27872158 19.11914536 -44.27872158 19.11914536 -45.33447266 19.30639648 C-45.99447266 20.29639648 -46.65447266 21.28639648 -47.33447266 22.30639648 C-46.01447266 21.97639648 -44.69447266 21.64639648 -43.33447266 21.30639648 C-43.33447266 21.96639648 -43.33447266 22.62639648 -43.33447266 23.30639648 C-40.16826923 24.23893901 -37.3229402 24.43540685 -34.02772522 24.44442749 C-32.95244064 24.44988083 -31.87715607 24.45533417 -30.76928711 24.46095276 C-29.0072998 24.46251625 -29.0072998 24.46251625 -27.2097168 24.46411133 C-25.96870712 24.46919205 -24.72769745 24.47427277 -23.44908142 24.47950745 C-20.75247339 24.49021248 -18.05591672 24.49921282 -15.35930061 24.50562668 C-11.09393849 24.51632332 -6.82865521 24.5365717 -2.56333923 24.55874634 C9.5645894 24.62061758 21.6925127 24.67469793 33.82055664 24.70776367 C40.52096387 24.72611154 47.22123833 24.7550464 53.92154795 24.79576838 C57.46575241 24.81682979 61.00978964 24.83229446 64.55405998 24.83457565 C68.50663828 24.83712283 72.45888823 24.86258765 76.41137695 24.88989258 C77.58401093 24.88688644 78.7566449 24.88388031 79.96481323 24.88078308 C81.58196983 24.89742256 81.58196983 24.89742256 83.23179626 24.91439819 C84.63296393 24.91936341 84.63296393 24.91936341 86.06243801 24.92442894 C89.21215177 25.3866061 91.11403791 26.42717336 93.66552734 28.30639648 C94.62632923 31.6918102 94.38519844 34.8767139 93.66552734 38.30639648 C91.09180789 41.08330432 88.49162059 43.17177929 84.6329565 43.45623493 C83.79106557 43.46788276 82.94917463 43.47953058 82.08177185 43.49153137 C81.11598709 43.50710083 80.15020233 43.52267029 79.15515137 43.53871155 C78.09179565 43.55075119 77.02843994 43.56279083 75.93286133 43.57519531 C74.25698692 43.59968246 74.25698692 43.59968246 72.54725647 43.62466431 C68.83542933 43.67684395 65.1235718 43.72098815 61.41162109 43.76342773 C60.14491137 43.77853582 58.87820164 43.79364391 57.57310677 43.80920982 C51.55727945 43.88024436 45.54144013 43.94709888 39.52550167 44.00779897 C32.59369286 44.07791626 25.66235833 44.16476967 18.73093551 44.2659815 C12.71897794 44.35252673 6.70698535 44.41650994 0.69465828 44.47266197 C-1.85741288 44.49971596 -4.40942082 44.53366068 -6.96130562 44.57468605 C-10.53965275 44.63057366 -14.11736072 44.66060765 -17.69604492 44.68457031 C-19.26982407 44.71781151 -19.26982407 44.71781151 -20.87539673 44.75172424 C-27.67211521 44.7618645 -32.33471097 43.38913761 -38.33447266 40.30639648 C-41.08046669 39.25212537 -43.86120606 38.31238366 -46.64697266 37.36889648 C-55.05962993 34.46035883 -63.40189719 31.3743839 -71.33447266 27.30639648 C-65.0111044 23.15267151 -58.73636922 20.18223424 -51.63525391 17.59545898 C-48.34346951 16.30991005 -45.27929289 14.81390228 -42.14697266 13.18139648 C-37.76582358 10.92182747 -33.58817591 9.36949479 -28.84228516 8.08764648 C-25.08181457 6.91616032 -21.60843167 5.21222477 -18.07275391 3.48999023 C-12.07256936 0.89647252 -6.49288087 0.0058077 0 0 Z " fill="#1E5327" transform="translate(308.33447265625,250.693603515625)"/>
<path d="M0 0 C1.23375431 -0.00128164 1.23375431 -0.00128164 2.49243295 -0.00258917 C5.26396917 -0.00424364 8.03544562 0.00127689 10.80697632 0.00672913 C12.78754169 0.00701103 14.76810717 0.0068532 16.74867249 0.00628662 C22.13888711 0.00599877 27.52907964 0.01189345 32.91928911 0.01886058 C38.54740825 0.02509623 44.17552785 0.02569808 49.8036499 0.02688599 C60.46733595 0.02999867 71.1310118 0.03821123 81.79469335 0.04823548 C93.93235507 0.05939855 106.07001727 0.06490755 118.20768285 0.06993091 C143.18137879 0.08039389 168.15506565 0.09799213 193.12875366 0.12025452 C191.67206942 3.033623 189.85626546 3.140498 186.81625366 4.24525452 C182.61000884 5.80466541 178.42709923 7.3905114 174.27328491 9.08509827 C173.42355103 9.43105042 172.57381714 9.77700256 171.69833374 10.13343811 C170.03908556 10.81101043 168.38125864 11.49207851 166.72518921 12.17738342 C154.53302762 17.12739856 143.83190404 19.7188987 130.61141968 19.63783264 C129.10200836 19.64326738 127.59260235 19.65039754 126.08320618 19.65907288 C122.02571615 19.67713796 117.96863785 19.6703122 113.91114163 19.65755653 C109.64853979 19.64735383 105.38597069 19.65684102 101.12336731 19.6631012 C93.97609181 19.67035107 86.8289824 19.66085436 79.68173218 19.64173889 C71.4272967 19.61991677 63.17325565 19.62707073 54.9188295 19.64904451 C47.81106717 19.66720504 40.7034234 19.66975542 33.59564537 19.65928984 C29.35901698 19.65306596 25.12257407 19.65218989 20.88595772 19.66543579 C16.90891985 19.67700537 12.93239107 19.66894892 8.9554081 19.64585876 C7.49856155 19.64058003 6.04167198 19.6420712 4.58484268 19.65090942 C2.59299015 19.66187821 0.6010437 19.64566922 -1.39076233 19.62818909 C-2.50399589 19.62668098 -3.61722944 19.62517288 -4.76419735 19.62361908 C-8.88267502 18.9563957 -11.91546271 17.07603815 -14.87124634 14.12025452 C-15.30461567 11.0680962 -15.36199573 8.16610127 -14.87124634 5.12025452 C-10.23556874 0.24059389 -6.41489114 -0.02407142 0 0 Z " fill="#09727B" transform="translate(72.87124633789063,324.87974548339844)"/>
<path d="M0 0 C1.5933909 -0.00322855 3.18677828 -0.00905949 4.78015137 -0.01725769 C9.05654556 -0.03163848 13.33198178 -0.00905754 17.60826015 0.02160144 C22.09911749 0.0481731 26.58995163 0.0426665 31.08087158 0.04151917 C38.60550773 0.04431593 46.12977762 0.07020634 53.65429688 0.11132812 C62.3541333 0.15869709 71.05357136 0.17431469 79.7535274 0.17212147 C89.03580976 0.17009761 98.31793878 0.19088248 107.6001749 0.21846128 C110.27118321 0.22485513 112.94216681 0.22698465 115.61318207 0.22817802 C119.79949572 0.23118592 123.98547372 0.24945488 128.17167664 0.27967644 C129.708788 0.28845175 131.24593799 0.29212746 132.78307343 0.29039383 C134.87696123 0.28892553 136.96990343 0.30584604 139.06365967 0.32762146 C140.23605572 0.33264899 141.40845177 0.33767653 142.61637497 0.34285641 C145.47363281 0.72875977 145.47363281 0.72875977 147.33787918 2.13493443 C149.40444237 5.03498307 149.47363281 8.24619246 149.47363281 11.72875977 C148.71497537 14.3495764 148.11924964 15.28539096 145.89146805 16.81529045 C142.44586752 18.11705424 139.10726916 17.99715122 135.47576904 17.9692688 C134.25782744 17.97183207 134.25782744 17.97183207 133.01528096 17.97444713 C130.29134786 17.97774447 127.56766045 17.96673432 124.84375 17.95581055 C122.89244594 17.95524649 120.94114146 17.95556289 118.98983765 17.95669556 C113.68855363 17.95727027 108.38735979 17.94549676 103.08609676 17.93154764 C97.54741305 17.91906004 92.00872736 17.91787134 86.47003174 17.91549683 C75.97993546 17.90927626 65.48988078 17.89285763 54.99980283 17.87279785 C43.0579842 17.85045679 31.1161636 17.83944993 19.17432928 17.82940698 C-5.39259262 17.80849192 -29.95947757 17.77330473 -54.52636719 17.72875977 C-54.52636719 17.06875977 -54.52636719 16.40875977 -54.52636719 15.72875977 C-53.87152344 15.49801758 -53.21667969 15.26727539 -52.54199219 15.02954102 C-47.56789111 13.25207269 -42.64712865 11.39868544 -37.77636719 9.35375977 C-36.82726093 8.96005912 -35.87815468 8.56635847 -34.90028763 8.1607275 C-32.65521661 7.20786886 -30.42630947 6.2159703 -28.21577072 5.18553257 C-18.73352155 0.97444666 -10.34856472 -0.12382176 0 0 Z " fill="#053532" transform="translate(263.5263671875,351.271240234375)"/>
<path d="M0 0 C1.28820145 -0.00073013 2.57640289 -0.00146027 3.90364075 -0.00221252 C7.42837614 -0.00364519 10.95225812 0.0257187 14.47679543 0.06065726 C18.16296815 0.09194659 21.84916115 0.0948535 25.53544617 0.1007843 C32.51241359 0.11631529 39.48898857 0.15733327 46.4657833 0.20753175 C54.41006983 0.26344872 62.35437526 0.29091756 70.29880965 0.31600893 C86.63783123 0.36825013 102.97645828 0.45617744 119.31518555 0.56762695 C119.64518555 2.54762695 119.97518555 4.52762695 120.31518555 6.56762695 C121.10280273 6.82672852 121.89041992 7.08583008 122.7019043 7.3527832 C127.1925394 8.86260755 131.66524108 10.41405099 136.12768555 12.00512695 C136.99844727 12.30483398 137.86920898 12.60454102 138.76635742 12.91333008 C140.00675781 13.35902344 140.00675781 13.35902344 141.2722168 13.8137207 C142.0247876 14.07854248 142.7773584 14.34336426 143.55273438 14.61621094 C145.31518555 15.56762695 145.31518555 15.56762695 146.31518555 18.56762695 C125.67061368 18.70775373 105.02612017 18.81357673 84.38116932 18.87849998 C74.79545513 18.90944554 65.21003632 18.95163932 55.62451172 19.02026367 C47.27029512 19.08004441 38.91629243 19.11877102 30.56186789 19.13215792 C26.13763845 19.13998402 21.71402097 19.15839098 17.28998756 19.20200729 C13.12594823 19.24272781 8.96277299 19.25529745 4.79855347 19.24627304 C3.27028902 19.24792397 1.74199574 19.2598633 0.21390343 19.2828598 C-11.27072417 19.44721862 -11.27072417 19.44721862 -14.70452309 17.31132889 C-17.03318225 14.68980415 -17.70827038 12.43392819 -18.30981445 9.00512695 C-16.48189441 -1.04843327 -8.3371552 -0.12321735 0 0 Z " fill="#245E29" transform="translate(89.684814453125,275.432373046875)"/>
<path d="M0 0 C0.86033844 -0.0071553 1.72067688 -0.01431061 2.60708618 -0.02168274 C4.01123779 -0.02571609 4.01123779 -0.02571609 5.4437561 -0.02983093 C6.43622345 -0.03640213 7.4286908 -0.04297333 8.45123291 -0.04974365 C11.73861776 -0.06946428 15.0259568 -0.08114042 18.31338501 -0.09111023 C20.00275114 -0.09722352 20.00275114 -0.09722352 21.72624588 -0.10346031 C27.69458075 -0.124322 33.66289266 -0.13861981 39.6312561 -0.147995 C45.76853855 -0.15902199 51.90545469 -0.19337894 58.04260826 -0.23316669 C62.78357573 -0.25944055 67.52445764 -0.26769668 72.26549149 -0.27127647 C74.5258899 -0.27611951 76.78628509 -0.28766754 79.04661179 -0.30631447 C91.31799836 -0.401206 102.05096985 -0.19259453 113.66494751 4.14717102 C114.98258498 4.56059876 116.30221708 4.96782066 117.62515259 5.3639679 C120.91512935 6.44146088 124.19755048 7.53937871 127.47744751 8.64717102 C128.64598267 9.02486633 129.81451782 9.40256165 131.01846313 9.79170227 C132.12512329 10.16681946 133.23178345 10.54193665 134.37197876 10.92842102 C135.36689331 11.25906555 136.36180786 11.58971008 137.38687134 11.93037415 C139.66494751 13.14717102 139.66494751 13.14717102 140.55825806 15.2233429 C140.59346558 15.85820618 140.6286731 16.49306946 140.66494751 17.14717102 C138.89539787 18.91672066 136.34436862 18.28877285 133.94622803 18.30107117 C132.70389404 18.30967163 131.46156006 18.31827209 130.18157959 18.32713318 C128.79208416 18.33156877 127.40258828 18.3358671 126.01309204 18.34004211 C124.55970054 18.34793972 123.10631102 18.35620846 121.65292358 18.36482239 C116.86788821 18.39107985 112.08284392 18.40635271 107.29776001 18.42060852 C105.65315622 18.42596648 104.00855249 18.43134398 102.36394882 18.43674088 C95.52525403 18.45837417 88.68656163 18.47711269 81.84784126 18.48836327 C72.03294768 18.50461393 62.21844932 18.53781322 52.40370476 18.59476411 C45.51027636 18.6334061 38.61695392 18.65298905 31.72342002 18.65828383 C27.60229036 18.66194496 23.48158183 18.67404602 19.360569 18.70638657 C15.48464725 18.73636719 11.60940363 18.74281548 7.73339081 18.73100281 C6.30912377 18.73078123 4.88482618 18.73915568 3.46066666 18.75665665 C1.51978687 18.77921325 -0.42139798 18.76811043 -2.36236572 18.75517273 C-3.44970442 18.75848288 -4.53704311 18.76179302 -5.65733147 18.76520348 C-8.33505249 18.14717102 -8.33505249 18.14717102 -10.18344307 15.75614357 C-11.34988936 13.11355808 -11.7396077 11.38902643 -11.71005249 8.52217102 C-11.71778687 7.7667804 -11.72552124 7.01138977 -11.73348999 6.23310852 C-11.22914848 3.59273236 -10.47470292 2.74464759 -8.33505249 1.14717102 C-5.51045239 0.26861161 -2.94897922 0.0169146 0 0 Z " fill="#053634" transform="translate(112.33505249023438,224.8528289794922)"/>
<path d="M0 0 C1.4075354 -0.0098568 1.4075354 -0.0098568 2.84350586 -0.01991272 C5.95776442 -0.03967016 9.07197473 -0.05131344 12.1862793 -0.0612793 C13.24836294 -0.06535482 14.31044659 -0.06943035 15.40471458 -0.07362938 C21.02550437 -0.09450002 26.64626967 -0.10879775 32.26708984 -0.11816406 C38.07799142 -0.1292338 43.88851062 -0.16363761 49.69927692 -0.20333576 C54.16280336 -0.229458 58.62623806 -0.23785198 63.08983421 -0.24144554 C65.23207369 -0.24632244 67.37430877 -0.25796764 69.51647377 -0.27648354 C72.51389654 -0.3007824 75.51032178 -0.29992679 78.5078125 -0.29296875 C79.39371567 -0.30577881 80.27961884 -0.31858887 81.19236755 -0.33178711 C85.31705491 -0.29686561 87.41593579 -0.1561459 90.98942566 2.08137512 C93.60353734 4.87841373 93.78840272 6.59111159 94.0144043 10.2824707 C93.92514444 12.82900185 93.56888074 14.18773683 91.94799805 16.17700195 C88.18855803 18.86221364 85.6251891 19.55012444 81.03178406 19.5377655 C79.84692917 19.5418895 78.66207428 19.54601349 77.4413147 19.55026245 C75.50462418 19.53408371 75.50462418 19.53408371 73.52880859 19.51757812 C72.14877847 19.51673146 70.76874699 19.51720776 69.38871765 19.51890564 C65.64934472 19.51976549 61.91026117 19.50214154 58.17095542 19.48118377 C54.26053575 19.46241523 50.35010926 19.46066639 46.43965149 19.45710754 C39.03781694 19.44778759 31.6361155 19.42317451 24.23433954 19.39305907 C15.80634953 19.3595135 7.37835313 19.34302867 -1.04968703 19.32797277 C-18.38386897 19.29662488 -35.71792138 19.24386539 -53.05200195 19.17700195 C-50.33465932 17.07335569 -48.16892476 15.70855855 -44.86450195 14.73950195 C-40.92186883 13.57646175 -37.2813504 11.96264237 -33.54248047 10.27587891 C-29.28091536 8.3955432 -24.94602747 6.70092011 -20.61450195 4.98950195 C-18.84466926 4.28843954 -17.07512324 3.58665289 -15.3059082 2.8840332 C-14.53577393 2.57957275 -13.76563965 2.2751123 -12.97216797 1.96142578 C-8.51724406 0.14150582 -4.82223883 0.01453687 0 0 Z " fill="#07676E" transform="translate(319.052001953125,324.822998046875)"/>
<path d="M0 0 C1.65 0.33 3.3 0.66 5 1 C5 4 5 4 4.50610352 5.78027344 C3.8340319 8.72792182 3.88860561 11.4932331 3.90234375 14.515625 C3.90556641 15.76601562 3.90878906 17.01640625 3.91210938 18.3046875 C3.92048828 19.60664062 3.92886719 20.90859375 3.9375 22.25 C3.94201172 23.56742188 3.94652344 24.88484375 3.95117188 26.2421875 C3.96295684 29.49483741 3.97940989 32.74739584 4 36 C3.67 36 3.34 36 3 36 C2.505 23.13 2.505 23.13 2 10 C0.35 12.97 -1.3 15.94 -3 19 C-4.42506668 20.93175705 -5.85154556 22.862976 -7.3203125 24.76171875 C-11.4311007 30.23958303 -15.46770345 35.92756907 -18.52734375 42.0625 C-19.94478357 44.88986006 -21.5220164 47.31771494 -23.375 49.875 C-25.58465729 52.96202121 -27.67834657 56.05370359 -29.625 59.3125 C-31.20022043 61.93786739 -32.26783981 63.22423798 -34.6875 65.25 C-37.85169158 69.01282242 -37.86602473 72.44612244 -38.25 77.2578125 C-38.62125 78.61519531 -38.62125 78.61519531 -39 80 C-39.82588623 80.43723389 -40.65177246 80.87446777 -41.50268555 81.32495117 C-44.23795661 82.75882473 -44.23795661 82.75882473 -44.65942383 85.54370117 C-44.67513428 86.53345947 -44.69084473 87.52321777 -44.70703125 88.54296875 C-44.73603516 89.61611328 -44.76503906 90.68925781 -44.79492188 91.79492188 C-44.80362305 93.47424805 -44.80362305 93.47424805 -44.8125 95.1875 C-44.83763672 96.31865234 -44.86277344 97.44980469 -44.88867188 98.61523438 C-44.94764384 101.4105053 -44.98385033 104.20420675 -45 107 C-45.99 107.33 -46.98 107.66 -48 108 C-49.01641748 109.77008767 -49.01641748 109.77008767 -50 112 C-51.26942233 113.97282518 -52.56344093 115.92993315 -53.875 117.875 C-54.55304688 118.88304687 -55.23109375 119.89109375 -55.9296875 120.9296875 C-56.61289063 121.94289063 -57.29609375 122.95609375 -58 124 C-58.81597656 125.66289062 -58.81597656 125.66289062 -59.6484375 127.359375 C-62 130 -62 130 -64.09521484 130.47119141 C-66.67286239 130.59183414 -69.17403892 130.52339362 -71.75 130.375 C-72.63816406 130.34792969 -73.52632812 130.32085937 -74.44140625 130.29296875 C-76.63008395 130.22236624 -78.81379568 130.12385527 -81 130 C-79.6563724 126.26178857 -77.96690187 123.32594011 -75.625 120.125 C-73.5292611 117.21088372 -71.56552567 114.35377144 -69.875 111.1875 C-67.9255967 107.8735144 -65.89729634 105.51607314 -63 103 C-62.34 103 -61.68 103 -61 103 C-61.33 97.72 -61.66 92.44 -62 87 C-65.677223 89.65318622 -69.34437551 92.31731949 -73 95 C-73.83273438 95.6084375 -74.66546875 96.216875 -75.5234375 96.84375 C-82.93806841 102.41104966 -87.43570031 107.38627574 -91 116 C-92.46446546 118.35941657 -94.00916922 120.63805108 -95.60546875 122.91015625 C-97.14328627 125.07704164 -97.14328627 125.07704164 -98.3125 128.0625 C-100 130 -100 130 -102.1796875 130.296875 C-104.47657227 130.31118581 -106.71410388 130.21565058 -109 130 C-107.59869039 123.69410675 -104.69342156 118.5714669 -100.4140625 113.75390625 C-98.59140545 111.49320731 -97.1004229 109.08770914 -95.5625 106.625 C-87.28543133 93.42837207 -87.28543133 93.42837207 -81 89 C-80.24460938 88.45472656 -79.48921875 87.90945312 -78.7109375 87.34765625 C-74.96056795 84.66801154 -71.24931387 82.06144685 -67.1875 79.875 C-63.9663103 78.16910324 -63.9663103 78.16910324 -61.75 75.6875 C-59.16984136 73.16598133 -56.79889572 71.51785609 -53.75 69.625 C-51.83255125 68.4179081 -49.91586505 67.20960393 -48 66 C-46.79537109 65.25169922 -46.79537109 65.25169922 -45.56640625 64.48828125 C-39.41793666 60.25787843 -36.31957514 54.92074407 -32.89453125 48.48046875 C-30.80192142 44.63610718 -28.41357912 41.17826744 -25.85546875 37.63671875 C-23.17959717 33.8341644 -20.70743033 29.90815897 -18.21313477 25.98510742 C-16.2212976 22.86382913 -14.18910328 19.79879118 -12 16.8125 C-9.87645358 14.11614914 -9.87645358 14.11614914 -9 11 C-8.34 11 -7.68 11 -7 11 C-6.773125 10.29875 -6.54625 9.5975 -6.3125 8.875 C-4.68343133 5.30656387 -2.59359269 2.93485489 0 0 Z " fill="#318937" transform="translate(235,65)"/>
<path d="M0 0 C1.73735664 -0.00824799 1.73735664 -0.00824799 3.5098114 -0.0166626 C4.77648148 -0.00228149 6.04315155 0.01209961 7.34820557 0.0269165 C8.69853176 0.02804507 10.04886041 0.02741094 11.39918518 0.02514648 C15.06226983 0.02399873 18.72483064 0.04751731 22.38779354 0.07544231 C26.21679466 0.10044607 30.04580777 0.10279715 33.87487793 0.10754395 C41.12450906 0.11997678 48.37389893 0.15280241 55.62342381 0.1929419 C63.8772553 0.23765015 72.13109831 0.25964425 80.38502073 0.27972364 C97.36279742 0.32153489 114.34033926 0.39189277 131.31793213 0.48101807 C124.65884214 5.571484 116.78284134 8.1583096 108.96818542 11.04878235 C105.35482033 12.41146029 105.35482033 12.41146029 102.12458801 14.0332489 C90.98556237 19.23780489 80.85198515 19.23217622 68.72027588 18.95367432 C66.67103297 18.92758816 64.62175936 18.903822 62.57246399 18.88224792 C58.30844578 18.83096398 54.0454574 18.75928154 49.78204346 18.67120361 C44.32503927 18.55907619 38.86844079 18.48741503 33.41062069 18.42943668 C29.1922173 18.38215084 24.97416091 18.31943816 20.75604439 18.25146294 C18.74309928 18.21977545 16.7300971 18.19151524 14.71705437 18.16679573 C11.91024576 18.12886759 9.10450136 18.07156605 6.29815674 18.00860596 C5.06143471 17.99661919 5.06143471 17.99661919 3.79972839 17.98439026 C-1.05542352 17.85049976 -4.4732353 17.1599216 -8.68206787 14.48101807 C-10.2467802 11.35159341 -10.37908745 7.87019583 -9.68206787 4.48101807 C-6.673498 0.70234538 -4.77585345 -0.01749397 0 0 Z " fill="#033431" transform="translate(67.68206787109375,351.51898193359375)"/>
<path d="M0 0 C1.20380562 -0.01248528 1.20380562 -0.01248528 2.43193054 -0.02522278 C5.06453397 -0.04916998 7.69688933 -0.05807315 10.32958984 -0.06469727 C12.16848827 -0.0736706 14.00738597 -0.08279257 15.84628296 -0.09205627 C19.69099702 -0.1085039 23.53562438 -0.11623948 27.38037109 -0.11914062 C32.3045913 -0.12454032 37.22799741 -0.1623035 42.15198708 -0.20788479 C45.9455565 -0.23762402 49.73892834 -0.24486339 53.53260422 -0.24586678 C55.34829845 -0.25007021 57.1639932 -0.26250951 58.9795723 -0.28338432 C61.51694257 -0.31025317 64.0524037 -0.30548941 66.58984375 -0.29296875 C67.33698135 -0.30780304 68.08411896 -0.32263733 68.85389709 -0.33792114 C72.83221987 -0.28204267 74.50754527 0.17857606 77.64242554 2.71495056 C79.66552734 5.30639648 79.66552734 5.30639648 80.11083984 7.36889648 C80.00513672 8.00827148 79.89943359 8.64764648 79.79052734 9.30639648 C79.71060547 9.94577148 79.63068359 10.58514648 79.54833984 11.24389648 C78.11162064 14.6004794 76.60007966 16.06970392 73.66552734 18.30639648 C69.85109224 19.05294856 66.0819445 18.96557636 62.20581055 18.91821289 C60.46852188 18.92671013 60.46852188 18.92671013 58.69613647 18.93537903 C54.86919795 18.94888064 51.04320572 18.92793874 47.21630859 18.90795898 C44.56019076 18.91345666 41.90418256 18.92119255 39.24809265 18.93222046 C32.25694481 18.95668823 25.26606821 18.9509201 18.27490234 18.93841553 C7.73833033 18.91980761 -2.79819168 18.92462746 -13.33472568 18.95844972 C-17.9208768 18.97184166 -22.50657367 18.95959455 -27.09269714 18.94229126 C-29.48277895 18.94523741 -31.87286003 18.94889099 -34.26293945 18.95336914 C-35.36063156 18.94407883 -36.45832367 18.93478851 -37.58927917 18.92521667 C-39.08449097 18.9331852 -39.08449097 18.9331852 -40.60990906 18.9413147 C-41.4791183 18.93942957 -42.34832754 18.93754444 -43.24387646 18.93560219 C-44.27872158 19.11914536 -44.27872158 19.11914536 -45.33447266 19.30639648 C-45.99447266 20.29639648 -46.65447266 21.28639648 -47.33447266 22.30639648 C-46.01447266 21.97639648 -44.69447266 21.64639648 -43.33447266 21.30639648 C-43.33447266 21.96639648 -43.33447266 22.62639648 -43.33447266 23.30639648 C-42.01447266 23.63639648 -40.69447266 23.96639648 -39.33447266 24.30639648 C-39.33447266 24.63639648 -39.33447266 24.96639648 -39.33447266 25.30639648 C-44.94447266 25.30639648 -50.55447266 25.30639648 -56.33447266 25.30639648 C-56.33447266 24.64639648 -56.33447266 23.98639648 -56.33447266 23.30639648 C-57.98447266 22.97639648 -59.63447266 22.64639648 -61.33447266 22.30639648 C-58.75899992 20.58941466 -56.7514266 19.62505905 -53.89697266 18.55639648 C-49.90348885 17.00434383 -46.13529209 15.22032259 -42.33447266 13.24389648 C-37.88964569 10.97323137 -33.64708747 9.3854066 -28.84228516 8.08764648 C-25.08181457 6.91616032 -21.60843167 5.21222477 -18.07275391 3.48999023 C-12.07256936 0.89647252 -6.49288087 0.0058077 0 0 Z " fill="#398537" transform="translate(308.33447265625,250.693603515625)"/>
<path d="M0 0 C5.72651799 0.01038791 11.45304065 0.01483013 17.17956543 0.01983643 C28.33582736 0.03043381 39.49206905 0.04741006 50.64831543 0.06866455 C48.00389344 2.88795142 45.85656399 3.91523182 42.16784668 5.15460205 C41.08567871 5.52843018 40.00351074 5.9022583 38.8885498 6.28741455 C36.62329529 7.05153459 34.35767631 7.81457509 32.0916748 8.57647705 C31.00306152 8.9528833 29.91444824 9.32928955 28.79284668 9.71710205 C27.80647217 10.04887451 26.82009766 10.38064697 25.80383301 10.72247314 C23.14289076 11.85767125 21.33997762 12.9662293 19.02024841 14.61236572 C14.47874022 17.47094701 10.81770047 17.78184448 5.54187012 17.71563721 C4.66930573 17.7243988 3.79674133 17.7331604 2.8977356 17.7421875 C0.03803552 17.76404368 -2.82009617 17.7496834 -5.67980957 17.73272705 C-7.6766184 17.73609793 -9.67342522 17.74095282 -11.67022705 17.7472229 C-15.84289195 17.75457448 -20.01501982 17.74393941 -24.18762207 17.72052002 C-29.53685586 17.69195922 -34.88483934 17.70849338 -40.23402786 17.73838234 C-44.35188243 17.75643847 -48.46943971 17.75070628 -52.58730316 17.73774338 C-54.56008808 17.73440855 -56.5329 17.73849915 -58.50565338 17.75014114 C-61.25877123 17.76283029 -64.00985154 17.74350415 -66.76281738 17.71563721 C-67.57743439 17.72575836 -68.39205139 17.73587952 -69.23135376 17.74630737 C-73.12518721 17.67322589 -74.95221836 17.43819342 -77.85723877 14.75088501 C-79.82041929 11.22738289 -79.92983604 9.04345591 -79.35168457 5.06866455 C-78.01281738 2.90045166 -78.01281738 2.90045166 -75.35168457 1.06866455 C-71.67667648 0.36409367 -68.00731646 0.36928266 -64.27355957 0.3225708 C-63.07301941 0.29385391 -61.87247925 0.26513702 -60.63555908 0.23554993 C-40.43147745 -0.20451398 -20.20726215 -0.0406327 0 0 Z " fill="#409C3D" transform="translate(194.3516845703125,199.93133544921875)"/>
<path d="M0 0 C1.10073601 -0.01248528 1.10073601 -0.01248528 2.22370911 -0.02522278 C4.64536875 -0.04928476 7.06675895 -0.05808938 9.48852539 -0.06469727 C11.1747699 -0.07366531 12.86101359 -0.08278719 14.54725647 -0.09205627 C18.0803521 -0.10853763 21.61335305 -0.11624503 25.14648438 -0.11914062 C29.67062548 -0.12452881 34.19387556 -0.16222968 38.71776485 -0.20788479 C42.19994856 -0.23764411 45.68191718 -0.2448639 49.164217 -0.24586678 C50.83198701 -0.25007004 52.49975761 -0.26250875 54.16740227 -0.28338432 C56.50158971 -0.31028208 58.8337048 -0.3054805 61.16796875 -0.29296875 C62.1975621 -0.31522018 62.1975621 -0.31522018 63.24795532 -0.33792114 C67.01890303 -0.28044378 68.58434943 0.25561315 71.58106995 2.62120056 C73.64868164 5.30639648 73.64868164 5.30639648 74.21118164 8.86889648 C73.56996975 12.7874136 72.75368945 13.93197875 69.64868164 16.30639648 C66.26685026 17.99731218 62.42283697 17.48740756 58.70092773 17.51171875 C57.31060585 17.52656815 57.31060585 17.52656815 55.89219666 17.54171753 C52.81886375 17.57338468 49.74551536 17.59811056 46.67211914 17.62280273 C44.54504996 17.64336776 42.4179849 17.66436411 40.29092407 17.68577576 C34.68497048 17.74104307 29.07897972 17.79043178 23.47296143 17.83862305 C17.75545941 17.88880408 12.03801154 17.94450786 6.32055664 17.99975586 C-4.90335546 18.10739441 -16.12731453 18.20882671 -27.35131836 18.30639648 C-27.68131836 20.61639648 -28.01131836 22.92639648 -28.35131836 25.30639648 C-33.56876902 24.7813282 -37.57782947 23.52654059 -42.28881836 21.24389648 C-43.4322168 20.69604492 -44.57561523 20.14819336 -45.75366211 19.58374023 C-46.61088867 19.1622168 -47.46811523 18.74069336 -48.35131836 18.30639648 C-45.84285139 16.63408517 -43.66672206 15.49421896 -40.92163086 14.31811523 C-40.04949951 13.94372314 -39.17736816 13.56933105 -38.27880859 13.18359375 C-37.35398682 12.79099365 -36.42916504 12.39839355 -35.47631836 11.99389648 C-34.53409424 11.59162842 -33.59187012 11.18936035 -32.62109375 10.77490234 C-26.41063454 8.1383415 -20.17450173 5.62335287 -13.84741211 3.27905273 C-11.42265185 2.41953931 -11.42265185 2.41953931 -9.6547699 1.26475525 C-6.46179391 -0.06369316 -3.40303574 0.00328565 0 0 Z " fill="#48A143" transform="translate(285.351318359375,199.693603515625)"/>
<path d="M0 0 C13.99499376 -0.11685348 27.98991176 -0.20466524 41.98529339 -0.25906086 C48.48377578 -0.28516666 54.9819307 -0.32058392 61.48022461 -0.37719727 C67.75016821 -0.43148006 74.01979662 -0.46141313 80.28995705 -0.47438622 C82.68341854 -0.48363265 85.07686256 -0.50168863 87.47019005 -0.52865028 C90.81994428 -0.56488937 94.16839218 -0.56994727 97.51831055 -0.56762695 C98.51021393 -0.58560333 99.50211731 -0.60357971 100.52407837 -0.62210083 C105.15443691 -0.58734125 107.30621396 -0.51646592 111.11213684 2.31672668 C113 5 113 5 113.6875 8.5 C112.9367991 12.32175003 111.90070727 13.60947901 108.86697006 15.9717617 C105.38186648 17.89119097 101.85830844 17.65200869 97.96533203 17.56762695 C97.07688095 17.56835709 96.18842987 17.56908722 95.27305603 17.56983948 C92.35067656 17.56636956 89.42991183 17.52753689 86.5078125 17.48828125 C84.47615428 17.478951 82.44448478 17.47183589 80.41281128 17.46684265 C75.07617916 17.44778965 69.74023192 17.39870302 64.40386963 17.34332275 C58.95423649 17.29209391 53.50449224 17.26932082 48.0546875 17.24414062 C37.36949144 17.19058301 26.68480277 17.1052904 16 17 C16.05238851 14.97732035 16.10477702 12.95464071 16.15716553 10.93196106 C16.17789788 8.83548778 16.17789788 8.83548778 14.390625 7.13671875 C11.55690025 5.78931041 8.74351469 4.75610789 5.75 3.8125 C4.67234375 3.46832031 3.5946875 3.12414062 2.484375 2.76953125 C1.66453125 2.51558594 0.8446875 2.26164062 0 2 C0 1.34 0 0.68 0 0 Z " fill="#13929E" transform="translate(300,301)"/>
<path d="M0 0 C14.25576329 -0.11684888 28.51145223 -0.20466303 42.76759624 -0.25906086 C49.38714379 -0.2851676 56.00636989 -0.32058665 62.62573242 -0.37719727 C69.01238482 -0.43147661 75.3987278 -0.46141242 81.78559303 -0.47438622 C84.22371098 -0.48363327 86.66181178 -0.50169041 89.0997982 -0.52865028 C92.51181159 -0.56488465 95.92254233 -0.56994745 99.3347168 -0.56762695 C100.85062408 -0.59459152 100.85062408 -0.59459152 102.39715576 -0.62210083 C107.07231312 -0.58763835 109.28524888 -0.52813672 113.1353302 2.31672668 C115.58198129 5.83747528 115.60139698 7.79022117 115 12 C112.8 16.6 112.8 16.6 110 18 C107.90268017 18.10709243 105.80192078 18.14888492 103.7019043 18.16113281 C102.73327957 18.16858017 102.73327957 18.16858017 101.74508667 18.17617798 C99.60478658 18.19080464 97.46456065 18.19760303 95.32421875 18.203125 C93.83689878 18.20887685 92.34957884 18.21463458 90.86225891 18.22039795 C87.74093276 18.23090992 84.61963238 18.23675103 81.49829102 18.24023438 C77.50343718 18.24571401 73.50892506 18.2697295 69.51417828 18.29820633 C66.44034337 18.31685525 63.36659032 18.32203954 60.29270363 18.32357025 C58.82033232 18.32659316 57.34796232 18.33460954 55.87564659 18.34775543 C53.81226217 18.36486085 51.74970637 18.36292514 49.6862793 18.35644531 C48.51316696 18.36009094 47.34005463 18.36373657 46.13139343 18.36749268 C42.66440175 17.96061501 40.84454677 16.96294065 38 15 C32.35254192 12.61974123 26.48955788 10.82328735 20.625 9.0625 C13.98153532 7.0471564 7.30933273 4.91657834 1 2 C0.67 1.34 0.34 0.68 0 0 Z " fill="#013332" transform="translate(258,225)"/>
<path d="M0 0 C0.33 0 0.66 0 1 0 C1.33576553 3.27058845 1.6681927 6.54150779 2 9.8125 C2.09539062 10.74126953 2.19078125 11.67003906 2.2890625 12.62695312 C2.37929687 13.51962891 2.46953125 14.41230469 2.5625 15.33203125 C2.64628906 16.15421143 2.73007813 16.9763916 2.81640625 17.82348633 C3.14448311 21.7128549 2.68055387 25.17188446 2 29 C5.90240013 32.55451175 9.75499941 34.18704529 14.75 35.625 C15.41515625 35.82867187 16.0803125 36.03234375 16.765625 36.2421875 C20.28286686 37.29736006 23.79011532 38.18189828 27.38671875 38.921875 C32.46249881 40.01665109 37.21922298 41.77636362 42.0625 43.625 C42.92810547 43.94984375 43.79371094 44.2746875 44.68554688 44.609375 C46.79244496 45.40091682 48.89712802 46.19783722 51 47 C42.93408648 52.37727568 33.20750754 51.26106569 23.90625 51.1953125 C22.34826846 51.19157684 20.79028455 51.18873248 19.2322998 51.18673706 C15.15524677 51.17914408 11.07833892 51.15953344 7.00134277 51.1373291 C2.83164432 51.11677669 -1.33807786 51.10771535 -5.5078125 51.09765625 C-13.67194121 51.07628294 -21.83595249 51.04220011 -30 51 C-29.25180872 47.67374046 -28.17054987 45.54133095 -26.1875 42.75 C-23.80188467 39.27381766 -21.81065743 35.81817967 -19.98828125 32.0234375 C-17.30536488 26.53035181 -14.1826583 21.27716321 -11 16.0625 C-8.04047633 11.17851922 -5.47365418 6.14432506 -3 1 C-2.34 1.33 -1.68 1.66 -1 2 C-0.67 1.34 -0.34 0.68 0 0 Z " fill="#0C5535" transform="translate(221,143)"/>
<path d="M0 0 C1.80791016 0.07734375 1.80791016 0.07734375 3.65234375 0.15625 C4.90660156 0.22070312 6.16085937 0.28515625 7.453125 0.3515625 C8.72285156 0.40828125 9.99257813 0.465 11.30078125 0.5234375 C14.43547115 0.66485208 17.56935336 0.81626241 20.703125 0.9765625 C19.7440625 1.440625 19.7440625 1.440625 18.765625 1.9140625 C16.76701679 2.8110788 16.76701679 2.8110788 15.703125 3.9765625 C17.023125 4.6365625 18.343125 5.2965625 19.703125 5.9765625 C19.703125 8.2865625 19.703125 10.5965625 19.703125 12.9765625 C17.393125 12.9765625 15.083125 12.9765625 12.703125 12.9765625 C12.703125 13.9665625 12.703125 14.9565625 12.703125 15.9765625 C11.94805664 16.00161865 11.19298828 16.0266748 10.41503906 16.05249023 C6.92762406 16.16996274 3.44038191 16.29199029 -0.046875 16.4140625 C-1.23410156 16.45337891 -2.42132813 16.49269531 -3.64453125 16.53320312 C-11.22011244 16.80228115 -18.74943432 17.26953214 -26.296875 17.9765625 C-26.626875 20.2865625 -26.956875 22.5965625 -27.296875 24.9765625 C-32.51432566 24.45149422 -36.52338611 23.1967066 -41.234375 20.9140625 C-42.37777344 20.36621094 -43.52117187 19.81835938 -44.69921875 19.25390625 C-45.55644531 18.83238281 -46.41367188 18.41085938 -47.296875 17.9765625 C-44.78840803 16.30425119 -42.6122787 15.16438498 -39.8671875 13.98828125 C-38.99505615 13.61388916 -38.1229248 13.23949707 -37.22436523 12.85375977 C-36.29954346 12.46115967 -35.37472168 12.06855957 -34.421875 11.6640625 C-33.47965088 11.26179443 -32.53742676 10.85952637 -31.56665039 10.44506836 C-25.35619118 7.80850751 -19.12005837 5.29351889 -12.79296875 2.94921875 C-10.35970849 2.08251451 -10.35970849 2.08251451 -8.53442383 0.91430664 C-5.54914139 -0.33680846 -3.22631234 -0.15218454 0 0 Z " fill="#3F933C" transform="translate(284.296875,200.0234375)"/>
<path d="M0 0 C0.66 0.33 1.32 0.66 2 1 C2.144375 1.66 2.28875 2.32 2.4375 3 C2.623125 3.66 2.80875 4.32 3 5 C3.99 5.33 4.98 5.66 6 6 C6 11.61 6 17.22 6 23 C5.67 23 5.34 23 5 23 C4.505 15.575 4.505 15.575 4 8 C0.322777 10.65318622 -3.34437551 13.31731949 -7 16 C-8.24910156 16.91265625 -8.24910156 16.91265625 -9.5234375 17.84375 C-16.93806841 23.41104966 -21.43570031 28.38627574 -25 37 C-26.46446546 39.35941657 -28.00916922 41.63805108 -29.60546875 43.91015625 C-31.14328627 46.07704164 -31.14328627 46.07704164 -32.3125 49.0625 C-34 51 -34 51 -36.1796875 51.296875 C-38.47657227 51.31118581 -40.71410388 51.21565058 -43 51 C-41.59869039 44.69410675 -38.69342156 39.5714669 -34.4140625 34.75390625 C-32.59140545 32.49320731 -31.1004229 30.08770914 -29.5625 27.625 C-21.28543133 14.42837207 -21.28543133 14.42837207 -15 10 C-14.22140625 9.443125 -13.4428125 8.88625 -12.640625 8.3125 C-3.65656176 1.9332835 -3.65656176 1.9332835 0 0 Z " fill="#3EA33B" transform="translate(169,144)"/>
<path d="M0 0 C0.61520508 0.20681396 1.23041016 0.41362793 1.86425781 0.62670898 C4.65897656 1.56522214 7.45447724 2.50138458 10.25 3.4375 C11.21808594 3.76298828 12.18617188 4.08847656 13.18359375 4.42382812 C14.58544922 4.89272461 14.58544922 4.89272461 16.015625 5.37109375 C16.87446289 5.65911865 17.73330078 5.94714355 18.61816406 6.24389648 C20.73346278 6.91538891 22.84071282 7.49077539 25 8 C25 8.66 25 9.32 25 10 C22.06746654 11.03551045 19.12833062 12.05081838 16.1875 13.0625 C14.93743164 13.50432617 14.93743164 13.50432617 13.66210938 13.95507812 C12.85966797 14.22900391 12.05722656 14.50292969 11.23046875 14.78515625 C10.49207764 15.04176025 9.75368652 15.29836426 8.99291992 15.56274414 C7 16 7 16 4 15 C3.67 14.34 3.34 13.68 3 13 C1.02 13.33 -0.96 13.66 -3 14 C-3 11.36 -3 8.72 -3 6 C-50.19 6 -97.38 6 -146 6 C-146 5.67 -146 5.34 -146 5 C-73.73 4.505 -73.73 4.505 0 4 C0 2.68 0 1.36 0 0 Z " fill="#52825A" transform="translate(252,238)"/>
<path d="M0 0 C12.85421412 3.66970387 12.85421412 3.66970387 17 9 C15.31325725 10.68674275 13.22764062 10.1222216 10.97654623 10.12908131 C10.25185174 10.12616847 9.52715725 10.12325563 8.78050232 10.12025452 C8.0160236 10.12110894 7.25154489 10.12196337 6.46390015 10.12284368 C3.88272982 10.12450079 1.3016234 10.11897337 -1.27954102 10.11352539 C-3.12202961 10.11324354 -4.96451831 10.11340121 -6.80700684 10.1139679 C-11.82539237 10.11425596 -16.84375421 10.10835775 -21.86213422 10.10139394 C-27.10054738 10.09516193 -32.33896102 10.09455672 -37.57737732 10.09336853 C-47.50444491 10.09025476 -57.43150156 10.08204076 -67.35856432 10.07201904 C-78.65704095 10.06085931 -89.9555181 10.05534781 -101.25399888 10.05032361 C-124.502672 10.03985818 -147.75133539 10.02225787 -171 10 C-171 9.67 -171 9.34 -171 9 C-112.26 9 -53.52 9 7 9 C1.98754958 3.72372633 1.98754958 3.72372633 -4.3125 3.1875 C-5.91544922 3.11595703 -5.91544922 3.11595703 -7.55078125 3.04296875 C-8.35902344 3.02878906 -9.16726562 3.01460938 -10 3 C-10 2.67 -10 2.34 -10 2 C-6.7 2 -3.4 2 0 2 C0 1.34 0 0.68 0 0 Z " fill="#59BABF" transform="translate(236,292)"/>
<path d="M0 0 C2 1.0625 2 1.0625 3 3 C3.50030235 6.93094707 3.5996142 9.1005787 1.375 12.4375 C-1.71685231 14.47161336 -3.36367425 14.60605429 -7 14 C-9.375 12.4375 -9.375 12.4375 -11 10 C-11.42213381 6.56262469 -11.60856522 4.17909511 -10 1.0625 C-6.75978228 -0.65886567 -3.58042244 -0.52960415 0 0 Z " fill="#052B2C" transform="translate(322,109)"/>
<path d="M0 0 C-0.12705279 6.09853407 -2.15424501 8.9274445 -6.2109375 13.3984375 C-8 15 -8 15 -11 16 C-13.125 15.375 -13.125 15.375 -15 14 C-16.0625 11.6875 -16.0625 11.6875 -16 9 C-11.9357028 3.95041863 -6.80260121 -0.80030602 0 0 Z " fill="#178F1A" transform="translate(186,135)"/>
<path d="M0 0 C23.1 0.33 46.2 0.66 70 1 C66.50865976 3.61850518 64.26013476 4.80304871 60.25 6.1875 C59.26515625 6.53167969 58.2803125 6.87585938 57.265625 7.23046875 C56.51796875 7.48441406 55.7703125 7.73835937 55 8 C54.61047653 7.18860062 54.22095306 6.37720123 53.81962585 5.54121399 C52.2675358 2.80951118 52.2675358 2.80951118 49.66511536 2.36076355 C48.74800278 2.35410172 47.8308902 2.34743988 46.88598633 2.34057617 C45.84513382 2.32093307 44.80428131 2.30128998 43.73188782 2.28105164 C42.04895882 2.28695061 42.04895882 2.28695061 40.33203125 2.29296875 C38.60710701 2.27028679 38.60710701 2.27028679 36.84733582 2.24714661 C33.16886029 2.20410588 29.49120276 2.19541532 25.8125 2.1875 C23.32094154 2.16436861 20.82940272 2.13900613 18.33789062 2.11132812 C12.22525281 2.04831392 6.11293677 2.01350973 0 2 C0 1.34 0 0.68 0 0 Z " fill="#A2C8B2" transform="translate(190,193)"/>
<path d="M0 0 C36.3 0 72.6 0 110 0 C110 0.33 110 0.66 110 1 C59.51 1.495 59.51 1.495 8 2 C8 2.66 8 3.32 8 4 C5.64828869 3.40138258 3.3140622 2.73075648 1 2 C0.67 1.34 0.34 0.68 0 0 Z " fill="#395E5C" transform="translate(258,225)"/>
<path d="M0 0 C1.98 0.66 3.96 1.32 6 2 C5.38125 2.268125 4.7625 2.53625 4.125 2.8125 C1.7004767 3.95556848 1.7004767 3.95556848 0 7 C1.32 6.67 2.64 6.34 4 6 C4 6.66 4 7.32 4 8 C5.32 8.33 6.64 8.66 8 9 C8 9.33 8 9.66 8 10 C2.39 10 -3.22 10 -9 10 C-9 9.34 -9 8.68 -9 8 C-10.65 7.67 -12.3 7.34 -14 7 C-11.26845992 5.17897328 -8.91736704 4.10388853 -5.875 2.9375 C-2.68623321 1.87284184 -2.68623321 1.87284184 0 0 Z " fill="#91B989" transform="translate(261,266)"/>
<path d="M0 0 C6.6 0 13.2 0 20 0 C16.32380278 2.94095778 14.12268908 4.66150735 10 6.375 C9.175 6.73335938 8.35 7.09171875 7.5 7.4609375 C4.36502553 8.13691637 2.81731783 7.41872077 0 6 C0 4.02 0 2.04 0 0 Z " fill="#AFD5DC" transform="translate(261,318)"/>
<path d="M0 0 C1.27875 0.00257813 2.5575 0.00515625 3.875 0.0078125 C5.15375 0.00523437 6.4325 0.00265625 7.75 0 C10.875 0.1328125 10.875 0.1328125 11.875 1.1328125 C11.875 2.7828125 11.875 4.4328125 11.875 6.1328125 C6.925 6.4628125 1.975 6.7928125 -3.125 7.1328125 C-3.455 5.1528125 -3.785 3.1728125 -4.125 1.1328125 C-3.125 0.1328125 -3.125 0.1328125 0 0 Z " fill="#37CFD7" transform="translate(89.125,329.8671875)"/>
<path d="M0 0 C1.65 0 3.3 0 5 0 C4.67 0.99 4.34 1.98 4 3 C21.16 3 38.32 3 56 3 C56 3.33 56 3.66 56 4 C28.61 4 1.22 4 -27 4 C-27 3.67 -27 3.34 -27 3 C-18.09 3 -9.18 3 0 3 C0 2.01 0 1.02 0 0 Z " fill="#4FA250" transform="translate(297,213)"/>
<path d="M0 0 C1.67542976 0.28604898 3.34385343 0.61781233 5 1 C5 4 5 4 4.50610352 5.78027344 C3.8340319 8.72792182 3.88860561 11.4932331 3.90234375 14.515625 C3.90556641 15.76601562 3.90878906 17.01640625 3.91210938 18.3046875 C3.92048828 19.60664062 3.92886719 20.90859375 3.9375 22.25 C3.94201172 23.56742188 3.94652344 24.88484375 3.95117188 26.2421875 C3.96295684 29.49483741 3.97940989 32.74739584 4 36 C3.67 36 3.34 36 3 36 C3 27.09 3 18.18 3 9 C0.69 9 -1.62 9 -4 9 C-3.52418802 7.68628013 -3.04424851 6.37405454 -2.5625 5.0625 C-2.29566406 4.33160156 -2.02882812 3.60070312 -1.75390625 2.84765625 C-1 1 -1 1 0 0 Z " fill="#286C46" transform="translate(235,65)"/>
<path d="M0 0 C0.66 0.33 1.32 0.66 2 1 C-0.31 2.65 -2.62 4.3 -5 6 C0.28 6.33 5.56 6.66 11 7 C11 7.33 11 7.66 11 8 C-10.53191489 9.19148936 -10.53191489 9.19148936 -21 9 C-18.32473678 6.83086766 -16.04243545 5.49483661 -12.75 4.5 C-9.6278224 3.52980266 -6.59731949 2.46613896 -3.5625 1.25 C-2.386875 0.8375 -1.21125 0.425 0 0 Z " fill="#094242" transform="translate(287,335)"/>
<path d="M0 0 C2 2 2 2 2.1875 4.5625 C2 7 2 7 1 8 C-0.68608966 8.07205511 -2.37500659 8.08386068 -4.0625 8.0625 C-4.98160156 8.05347656 -5.90070313 8.04445313 -6.84765625 8.03515625 C-7.55792969 8.02355469 -8.26820313 8.01195312 -9 8 C-9 5.69 -9 3.38 -9 1 C-5.75778445 -0.08073852 -3.39597063 -0.21676408 0 0 Z " fill="#389946" transform="translate(155,278)"/>
<path d="M0 0 C2.31 0 4.62 0 7 0 C7 0.99 7 1.98 7 3 C7.99 3.33 8.98 3.66 10 4 C10.33 5.65 10.66 7.3 11 9 C7.37 9 3.74 9 0 9 C1 4 1 4 2 2 C1.34 1.34 0.68 0.68 0 0 Z " fill="#1D4621" transform="translate(318,252)"/>
<path d="M0 0 C-0.33 2.31 -0.66 4.62 -1 7 C-6.96564796 6.49228528 -11.63809899 4.61407872 -17 2 C-17 1.67 -17 1.34 -17 1 C-15.10440036 0.83069605 -13.20850769 0.66467136 -11.3125 0.5 C-10.25675781 0.4071875 -9.20101562 0.314375 -8.11328125 0.21875 C-5.39363975 0.0276585 -2.72460144 -0.04043935 0 0 Z " fill="#75AE70" transform="translate(258,218)"/>
<path d="M0 0 C1.23556641 0.01740234 1.23556641 0.01740234 2.49609375 0.03515625 C3.32238281 0.04417969 4.14867187 0.05320312 5 0.0625 C5.63808594 0.07410156 6.27617187 0.08570313 6.93359375 0.09765625 C6.93359375 2.40765625 6.93359375 4.71765625 6.93359375 7.09765625 C5.45452483 7.12454841 3.97531892 7.14400246 2.49609375 7.16015625 C1.26052734 7.17755859 1.26052734 7.17755859 0 7.1953125 C-2.06640625 7.09765625 -2.06640625 7.09765625 -3.06640625 6.09765625 C-3.19140625 3.59765625 -3.19140625 3.59765625 -3.06640625 1.09765625 C-2.06640625 0.09765625 -2.06640625 0.09765625 0 0 Z " fill="#21BFC7" transform="translate(205.06640625,304.90234375)"/>
<path d="M0 0 C1.92128781 0.56792784 3.83691616 1.15502177 5.75 1.75 C6.81734375 2.07484375 7.8846875 2.3996875 8.984375 2.734375 C12.13286097 4.0557603 13.78506657 5.44099924 16 8 C12.97505408 8.66561991 10.10308287 9.14297481 7 9 C5.8553125 7.824375 5.8553125 7.824375 4.6875 6.625 C0.50155976 2.53640721 -4.3553942 3.09902817 -10 3 C-10 2.67 -10 2.34 -10 2 C-6.7 2 -3.4 2 0 2 C0 1.34 0 0.68 0 0 Z " fill="#89C7BF" transform="translate(236,292)"/>
<path d="M0 0 C0.33 0.66 0.66 1.32 1 2 C1.66 2.33 2.32 2.66 3 3 C3 5.31 3 7.62 3 10 C0.09399739 11.25664978 -1.79604584 12 -5 12 C-5.44041451 6.71502591 -5.44041451 6.71502591 -5 4 C-2.5 1.5 -2.5 1.5 0 0 Z " fill="#18693D" transform="translate(232,106)"/>
<path d="M0 0 C2.31 0 4.62 0 7 0 C7.625 2.3125 7.625 2.3125 8 5 C7.01 6.485 7.01 6.485 6 8 C2.875 8.1875 2.875 8.1875 0 8 C-0.98120464 4.94736336 -0.98120464 3.05263664 0 0 Z " fill="#2F682E" transform="translate(175,278)"/>
<path d="M0 0 C2.05078125 0.03255208 4.1015625 0.06510417 6.15234375 0.09765625 C6.15234375 2.40765625 6.15234375 4.71765625 6.15234375 7.09765625 C3.18234375 7.09765625 0.21234375 7.09765625 -2.84765625 7.09765625 C-2.89019981 5.09810879 -2.88846408 3.09723989 -2.84765625 1.09765625 C-1.84765625 0.09765625 -1.84765625 0.09765625 0 0 Z " fill="#95CFD2" transform="translate(161.84765625,229.90234375)"/>
<path d="M0 0 C1.37478516 0.01740234 1.37478516 0.01740234 2.77734375 0.03515625 C3.69644531 0.04417969 4.61554688 0.05320313 5.5625 0.0625 C6.27277344 0.07410156 6.98304688 0.08570313 7.71484375 0.09765625 C7.71484375 1.74765625 7.71484375 3.39765625 7.71484375 5.09765625 C4.50033106 6.7049126 1.27871839 6.1551381 -2.28515625 6.09765625 C-2.66734392 4.44150968 -2.99910727 2.77308601 -3.28515625 1.09765625 C-2.28515625 0.09765625 -2.28515625 0.09765625 0 0 Z " fill="#0F2519" transform="translate(178.28515625,206.90234375)"/>
<path d="M0 0 C17.16 0 34.32 0 52 0 C51.67 0.66 51.34 1.32 51 2 C47.9375 2.625 47.9375 2.625 45 3 C45 2.34 45 1.68 45 1 C30.15 1 15.3 1 0 1 C0 0.67 0 0.34 0 0 Z " fill="#2E8F29" transform="translate(191,201)"/>
<path d="M0 0 C0 0.66 0 1.32 0 2 C1.65 2 3.3 2 5 2 C5 2.33 5 2.66 5 3 C-0.94 3.495 -0.94 3.495 -7 4 C-6.67 4.99 -6.34 5.98 -6 7 C-10.455 6.01 -10.455 6.01 -15 5 C-10.21812115 0.21812115 -6.7073279 -1.75668112 0 0 Z " fill="#3D7B3E" transform="translate(252,274)"/>
<path d="M0 0 C2.33944736 0.28730055 4.6739143 0.61936779 7 1 C7 2.98 7 4.96 7 7 C3.625 7.125 3.625 7.125 0 7 C-0.66 6.34 -1.32 5.68 -2 5 C-1.46428571 1.46428571 -1.46428571 1.46428571 0 0 Z " fill="#143017" transform="translate(152,206)"/>
<path d="M0 0 C5.28 0 10.56 0 16 0 C12.68273496 2.48794878 11.00386091 3.52821942 7.25 4.6875 C6.05117187 5.06455078 6.05117187 5.06455078 4.828125 5.44921875 C4.22484375 5.63097656 3.6215625 5.81273437 3 6 C0 1.125 0 1.125 0 0 Z " fill="#BEDAC1" transform="translate(242,195)"/>
<path d="M0 0 C0.8125 1.625 0.8125 1.625 1 4 C-0.14363607 5.44636326 -1.30487589 6.88261128 -2.5546875 8.23828125 C-4.14881613 10.1813948 -5.14129321 12.12269704 -6.25 14.375 C-9.09096091 19.75546937 -13.30097873 23.24283049 -18 27 C-18.33 26.01 -18.66 25.02 -19 24 C-18.5153125 23.72929687 -18.030625 23.45859375 -17.53125 23.1796875 C-11.11413358 19.05792426 -8.2251329 13.80794409 -4.76171875 7.2421875 C-3.32861004 4.60475905 -1.87995819 2.32536367 0 0 Z " fill="#4FA351" transform="translate(207,106)"/>
<path d="M0 0 C2.79297711 0.44099639 5.31340243 1.10446748 8 2 C7 5 7 5 4.75 6.1875 C2.00208853 6.99938294 -0.15447889 7.16260121 -3 7 C-1.125 1.125 -1.125 1.125 0 0 Z " fill="#188E9D" transform="translate(281,311)"/>
<path d="M0 0 C0.33 0.66 0.66 1.32 1 2 C0.67 2.66 0.34 3.32 0 4 C1.65 4.33 3.3 4.66 5 5 C4.01 6.98 3.02 8.96 2 11 C0.35 11 -1.3 11 -3 11 C-3 10.01 -3 9.02 -3 8 C-3.66 7.67 -4.32 7.34 -5 7 C-3.35 4.69 -1.7 2.38 0 0 Z " fill="#257F34" transform="translate(232,69)"/>
<path d="M0 0 C0.43957031 0.64453125 0.87914062 1.2890625 1.33203125 1.953125 C2.8620709 4.26060843 2.8620709 4.26060843 5.69921875 4.609375 C6.68535156 4.65578125 7.67148437 4.7021875 8.6875 4.75 C9.68136719 4.80671875 10.67523438 4.8634375 11.69921875 4.921875 C12.83810547 4.96054687 12.83810547 4.96054687 14 5 C14 5.33 14 5.66 14 6 C8.39 6 2.78 6 -3 6 C-3 5.34 -3 4.68 -3 4 C-4.65 3.67 -6.3 3.34 -8 3 C-3.5 0 -3.5 0 0 0 Z " fill="#6FA26C" transform="translate(255,270)"/>
<path d="M0 0 C1.05607181 2.74578671 0.96271597 4.18642013 0.375 7.125 C-1 10 -1 10 -3.625 11.375 C-4.40875 11.58125 -5.1925 11.7875 -6 12 C-6.36567164 5.539801 -6.36567164 5.539801 -4.6875 3.0625 C-3 2 -3 2 0 2 C0 1.34 0 0.68 0 0 Z " fill="#7BC16F" transform="translate(196,136)"/>
<path d="M0 0 C1.24546405 2.49092811 0.7767578 3.41080733 0 6 C-1.32 6 -2.64 6 -4 6 C-4 12.93 -4 19.86 -4 27 C-4.33 27 -4.66 27 -5 27 C-5.14492719 23.06288563 -5.23394537 19.12645375 -5.3125 15.1875 C-5.3753418 13.50817383 -5.3753418 13.50817383 -5.43945312 11.79492188 C-5.45556641 10.72177734 -5.47167969 9.64863281 -5.48828125 8.54296875 C-5.51446533 7.55321045 -5.54064941 6.56345215 -5.56762695 5.54370117 C-5 3 -5 3 -2.46948242 1.15356445 C-1.65455322 0.77288818 -0.83962402 0.39221191 0 0 Z " fill="#B3D6AE" transform="translate(195,145)"/>
<path d="M0 0 C1.67542976 0.28604898 3.34385343 0.61781233 5 1 C5.38218767 2.65614657 5.71395102 4.32457024 6 6 C5 7 5 7 1.9375 7.0625 C0.4834375 7.0315625 0.4834375 7.0315625 -1 7 C-1.04254356 5.00045254 -1.04080783 2.99958364 -1 1 C-0.67 0.67 -0.34 0.34 0 0 Z " fill="#105E41" transform="translate(318,138)"/>
<path d="M0 0 C0.33 0 0.66 0 1 0 C1 4.29 1 8.58 1 13 C0.67 13 0.34 13 0 13 C0 11.35 0 9.7 0 8 C-2.64 9.98 -5.28 11.96 -8 14 C-6.53094581 11.06189162 -5.02746723 8.18393336 -3.4375 5.3125 C-3.00308594 4.52488281 -2.56867188 3.73726563 -2.12109375 2.92578125 C-1 1 -1 1 0 0 Z " fill="#E2F0EB" transform="translate(237,74)"/>
<path d="M0 0 C2.00720923 0.28674418 4.0085944 0.61866701 6 1 C6.5625 2.9375 6.5625 2.9375 7 5 C6 6 6 6 2.9375 6.0625 C1.968125 6.041875 0.99875 6.02125 0 6 C-0.38218767 4.34385343 -0.71395102 2.67542976 -1 1 C-0.67 0.67 -0.34 0.34 0 0 Z " fill="#0C2D21" transform="translate(297,206)"/>
<path d="M0 0 C-0.25 3.375 -0.25 3.375 -1 7 C-3.0625 8.4375 -3.0625 8.4375 -5 9 C-5 7.02 -5 5.04 -5 3 C-5.99 3.33 -6.98 3.66 -8 4 C-8 3.34 -8 2.68 -8 2 C-4.77208445 -0.1519437 -3.71599191 -0.20086443 0 0 Z " fill="#2A9428" transform="translate(186,135)"/>
<path d="M0 0 C3.3 0 6.6 0 10 0 C9.34 1.32 8.68 2.64 8 4 C5.03 4 2.06 4 -1 4 C-0.67 2.68 -0.34 1.36 0 0 Z " fill="#41AD45" transform="translate(176,213)"/>
<path d="M0 0 C0.66 0.33 1.32 0.66 2 1 C-2.75 6.875 -2.75 6.875 -5 8 C-5.99 9.485 -5.99 9.485 -7 11 C-7.66 9.02 -8.32 7.04 -9 5 C-8.43410156 4.72285156 -7.86820313 4.44570312 -7.28515625 4.16015625 C-6.55167969 3.79792969 -5.81820312 3.43570313 -5.0625 3.0625 C-3.96615234 2.52302734 -3.96615234 2.52302734 -2.84765625 1.97265625 C-1.03750973 1.13628173 -1.03750973 1.13628173 0 0 Z " fill="#146849" transform="translate(227,131)"/>
<path d="M0 0 C0 1.32 0 2.64 0 4 C-3.96 4 -7.92 4 -12 4 C-7.54525018 0.65893764 -5.37994478 -0.14540391 0 0 Z " fill="#184646" transform="translate(278,340)"/>
<path d="M0 0 C2.64 0.99 5.28 1.98 8 3 C8 3.66 8 4.32 8 5 C5.11788698 5.96070434 3.30149956 6.10581883 0.3125 6.0625 C-0.89986328 6.04896484 -0.89986328 6.04896484 -2.13671875 6.03515625 C-3.05904297 6.01775391 -3.05904297 6.01775391 -4 6 C-2.68 5.34 -1.36 4.68 0 4 C0 2.68 0 1.36 0 0 Z " fill="#1D5532" transform="translate(252,238)"/>
<path d="M0 0 C0.33 0.99 0.66 1.98 1 3 C0.67 3.66 0.34 4.32 0 5 C-0.99 5 -1.98 5 -3 5 C-3.33 5.99 -3.66 6.98 -4 8 C-4.66 8 -5.32 8 -6 8 C-6 10.31 -6 12.62 -6 15 C-6.33 15 -6.66 15 -7 15 C-7.66964286 7.23214286 -7.66964286 7.23214286 -4.625 3.5625 C-2 1 -2 1 0 0 Z " fill="#50AC4A" transform="translate(196,133)"/>
<path d="M0 0 C6.27 0 12.54 0 19 0 C19 0.33 19 0.66 19 1 C13.555 1.495 13.555 1.495 8 2 C8 2.66 8 3.32 8 4 C5.64828869 3.40138258 3.3140622 2.73075648 1 2 C0.67 1.34 0.34 0.68 0 0 Z " fill="#30634F" transform="translate(258,225)"/>
<path d="M0 0 C1.15941038 3.47823115 0.70820884 5.45895578 0 9 C0.763125 8.67 1.52625 8.34 2.3125 8 C5 7 5 7 8 7 C6.35 8.32 4.7 9.64 3 11 C0.5625 10.3125 0.5625 10.3125 -2 9 C-3 6.625 -3 6.625 -3 4 C-1.5625 1.6875 -1.5625 1.6875 0 0 Z " fill="#299726" transform="translate(173,140)"/>
<path d="M0 0 C3.3 0 6.6 0 10 0 C8.1875 2.5 8.1875 2.5 6 5 C5.01 5 4.02 5 3 5 C2.87625 4.360625 2.7525 3.72125 2.625 3.0625 C2.315625 2.0415625 2.315625 2.0415625 2 1 C1.34 0.67 0.68 0.34 0 0 Z " fill="#226029" transform="translate(243,277)"/>
<path d="M0 0 C0.66 0.66 1.32 1.32 2 2 C-0.97 4.97 -3.94 7.94 -7 11 C-7.33 10.01 -7.66 9.02 -8 8 C-5.33333333 5.33333333 -2.66666667 2.66666667 0 0 Z " fill="#237128" transform="translate(172,169)"/>
<path d="M0 0 C0.99 0.33 1.98 0.66 3 1 C2.13375 1.845625 1.2675 2.69125 0.375 3.5625 C-1.06979106 5.14459211 -1.06979106 5.14459211 -2 7 C-1.46780909 10.82647392 -1.46780909 10.82647392 0 14 C-2.7822335 11.73943528 -3.90092877 10.5944274 -4.5 7 C-3.90092877 3.4055726 -2.7822335 2.26056472 0 0 Z " fill="#4B9A42" transform="translate(90,252)"/>
<path d="M0 0 C1.65 0 3.3 0 5 0 C4.01 0.495 4.01 0.495 3 1 C3 2.32 3 3.64 3 5 C3.99 5.66 4.98 6.32 6 7 C1.545 7.495 1.545 7.495 -3 8 C-2.34 7.67 -1.68 7.34 -1 7 C-0.59270772 4.67843403 -0.25561323 2.3431213 0 0 Z " fill="#B2CAB8" transform="translate(258,218)"/>
<path d="M0 0 C2.31 0 4.62 0 7 0 C7 0.99 7 1.98 7 3 C7.99 3.33 8.98 3.66 10 4 C6.8035914 5.06546953 4.34252724 5.07427838 1 5 C1.33 4.01 1.66 3.02 2 2 C1.34 1.34 0.68 0.68 0 0 Z " fill="#266A25" transform="translate(318,252)"/>
<path d="M0 0 C5.28 0 10.56 0 16 0 C16 0.33 16 0.66 16 1 C14.4221875 1.2165625 14.4221875 1.2165625 12.8125 1.4375 C9.15860534 1.89522807 9.15860534 1.89522807 6.3125 2.75 C4 3 4 3 0 0 Z " fill="#0E8D7F" transform="translate(301,302)"/>
<path d="M0 0 C1.4540625 0.0309375 1.4540625 0.0309375 2.9375 0.0625 C2.31875 0.330625 1.7 0.59875 1.0625 0.875 C-1.3620233 2.01806848 -1.3620233 2.01806848 -3.0625 5.0625 C-1.7425 4.7325 -0.4225 4.4025 0.9375 4.0625 C0.9375 4.7225 0.9375 5.3825 0.9375 6.0625 C1.9275 6.3925 2.9175 6.7225 3.9375 7.0625 C1.60455225 7.10491723 -0.72952567 7.10342937 -3.0625 7.0625 C-4.0625 6.0625 -4.0625 6.0625 -4.1875 3.5625 C-4.00295237 -0.12845252 -3.76342282 0.07680455 0 0 Z " fill="#AEC5B3" transform="translate(264.0625,267.9375)"/>
<path d="M0 0 C3.68754757 0.49831724 5.60490662 1.10067643 8 4 C5.36 4 2.72 4 0 4 C0 2.68 0 1.36 0 0 Z " fill="#32CCD3" transform="translate(203,307)"/>
<path d="M0 0 C0.66 0.33 1.32 0.66 2 1 C0.3125 3.5 0.3125 3.5 -2 6 C-4.75 6.3125 -4.75 6.3125 -7 6 C-4.74259377 3.66475218 -2.7194239 1.81294927 0 0 Z " fill="#48A434" transform="translate(157,152)"/>
<path d="M0 0 C0.99 0 1.98 0 3 0 C3 0.66 3 1.32 3 2 C3.66 2 4.32 2 5 2 C5.33 2.99 5.66 3.98 6 5 C1.545 4.01 1.545 4.01 -3 3 C-2.01 2.01 -1.02 1.02 0 0 Z " fill="#37683A" transform="translate(240,276)"/>
<path d="M0 0 C1.98 0 3.96 0 6 0 C6.33 0.99 6.66 1.98 7 3 C4.36 3 1.72 3 -1 3 C-0.67 2.01 -0.34 1.02 0 0 Z " fill="#32A23D" transform="translate(302,213)"/>
<path d="M0 0 C4.455 0.99 4.455 0.99 9 2 C5.77208445 4.1519437 4.71599191 4.20086443 1 4 C0.67 2.68 0.34 1.36 0 0 Z " fill="#358036" transform="translate(263,188)"/>
<path d="M0 0 C2.125 0.375 2.125 0.375 4 1 C2.37660195 2.70884005 0.70680947 4.37446717 -1 6 C-1.66 6 -2.32 6 -3 6 C-2.42655063 3.13275314 -2.1385485 2.1385485 0 0 Z " fill="#349725" transform="translate(149,158)"/>
<path d="M0 0 C0 3 0 3 -1.75 4.82421875 C-2.4925 5.43910156 -3.235 6.05398437 -4 6.6875 C-4.7425 7.31011719 -5.485 7.93273437 -6.25 8.57421875 C-6.8275 9.04472656 -7.405 9.51523438 -8 10 C-8.33 9.01 -8.66 8.02 -9 7 C-8.43410156 6.57847656 -7.86820313 6.15695313 -7.28515625 5.72265625 C-6.55167969 5.17480469 -5.81820312 4.62695312 -5.0625 4.0625 C-4.33160156 3.51722656 -3.60070312 2.97195312 -2.84765625 2.41015625 C-1.0865547 1.13092062 -1.0865547 1.13092062 0 0 Z " fill="#46A042" transform="translate(197,123)"/>
<path d="M0 0 C2.64 0 5.28 0 8 0 C5.6875 2.0625 5.6875 2.0625 3 4 C2.01 3.67 1.02 3.34 0 3 C0 2.01 0 1.02 0 0 Z " fill="#78CED5" transform="translate(273,318)"/>
<path d="M0 0 C0 0.66 0 1.32 0 2 C0.66 2 1.32 2 2 2 C2 2.99 2 3.98 2 5 C1.01 5 0.02 5 -1 5 C-1 4.34 -1 3.68 -1 3 C-2.65 2.67 -4.3 2.34 -6 2 C-3 0 -3 0 0 0 Z " fill="#64A15F" transform="translate(253,271)"/>
<path d="M0 0 C2.64 0 5.28 0 8 0 C8 1.32 8 2.64 8 4 C2.25 2.25 2.25 2.25 0 0 Z " fill="#85C180" transform="translate(244,220)"/>
<path d="M0 0 C1.32 0.33 2.64 0.66 4 1 C4.33 2.32 4.66 3.64 5 5 C3.35 5 1.7 5 0 5 C0 3.35 0 1.7 0 0 Z " fill="#CEDFD5" transform="translate(239,195)"/>
<path d="M0 0 C1.32 0 2.64 0 4 0 C3.39816251 2.02045442 2.72693904 4.02111039 2 6 C1.01 6.495 1.01 6.495 0 7 C0 4.69 0 2.38 0 0 Z " fill="#668E5A" transform="translate(249,244)"/>
<path d="M0 0 C2.31 0.66 4.62 1.32 7 2 C6.67 2.66 6.34 3.32 6 4 C4.02 4 2.04 4 0 4 C0 2.68 0 1.36 0 0 Z " fill="#44AC49" transform="translate(151,213)"/>
<path d="M0 0 C2.475 0.99 2.475 0.99 5 2 C4.67 3.32 4.34 4.64 4 6 C1.525 5.01 1.525 5.01 -1 4 C-0.67 2.68 -0.34 1.36 0 0 Z " fill="#115341" transform="translate(294,135)"/>
<path d="M0 0 C0.33 0.99 0.66 1.98 1 3 C-0.98 3.99 -2.96 4.98 -5 6 C-5 4.68 -5 3.36 -5 2 C-3.35 1.34 -1.7 0.68 0 0 Z " fill="#92C584" transform="translate(195,142)"/>
</svg>
